#	                Vertices: 8
#	                  Points: 0
#	                   Lines: 0
#	                   Faces: 6
#	               Materials: 1

#o 1

# Vertex list

v -0.5 -0.5 0.5
v -0.5 -0.5 -0.5
v -0.5 0.5 -0.5
v -0.5 0.5 0.5
v 0.5 -0.5 0.5
v 0.5 -0.5 -0.5
v 0.5 0.5 -0.5
v 0.5 0.5 0.5

vt  0.000 1.000 0.000
vt  1.000 1.000 0.000
vt  1.000 0.000 0.000
vt  0.000 0.000 0.000

vn  0.001 0.482 -0.876
vn  0.001 0.482 -0.876
vn  0.001 0.482 -0.876
vn  0.001 0.482 -0.876

# Point/Line/Face list

#usemtl Default
#f 4 3 2 1
#f 2 6 5 1
#f 3 7 6 2
#f 8 7 3 4
#f 5 8 4 1
#f 6 7 8 5

g head
s 1

#f 4/1/1 3/2/2 2/3/3
#f 2/1/1 6/2/2 5/3/3

f 3/1/1 7/2/2 6/3/3
f 3/1/1 6/3/3 2/4/4

#f 8/1/1 7/2/2 3/3/3
#f 5/1/1 8/2/2 4/3/3
f 6/1/1 7/2/2 8/3/3

# End of file
